<svg xmlns="http://www.w3.org/2000/svg" id="ab6d4b78-a8f6-485a-afcf-f519a4f8db63" width="874.073" height="696.664" data-name="Layer 1" viewBox="0 0 874.073 696.664"><title>reminder</title><circle cx="42.928" cy="681.978" r="13.685" fill="#6c63ff"/><rect width="36" height="36" x="230.72" y="658.953" fill="#ff6584"/><circle cx="230.928" cy="682.978" r="13.685" fill="#6c63ff"/><polygon fill="#f1f1f1" points="236.741 0 156.336 125.51 329.073 59.15 236.741 0"/><polygon fill="#f1f1f1" points="335.775 67.912 151.635 138.653 0 375.352 496.8 693.612 734.147 323.117 335.775 67.912"/><polygon fill="#6c63ff" points="633.944 200.247 634.64 200.964 624.625 176.833 529.768 270.217 508.139 322.339 633.944 200.247"/><polygon fill="#6c63ff" points="624.212 175.837 612.456 147.507 551.082 218.857 531.737 265.474 623.511 175.124 624.212 175.837"/><polygon fill="#6c63ff" points="611.269 145.82 612.026 146.473 596.573 109.235 553.541 212.932 611.269 145.82"/><polygon fill="#6c63ff" points="718.164 402.235 635.052 201.958 506.202 327.005 474.983 402.235 353.393 695.235 596.573 695.235 839.754 695.235 718.164 402.235"/><line x1="7.808" x2="868.339" y1="695.235" y2="695.235" fill="none" stroke="#3f3d56" stroke-miterlimit="10" stroke-width="2"/><polygon fill="#3f3d56" points="647.508 510.235 563.073 620.65 563.073 664.898 673.283 510.235 647.508 510.235"/><polygon fill="#3f3d56" points="611.229 510.235 563.073 568.354 563.073 617.358 644.991 510.235 611.229 510.235"/><polygon fill="#3f3d56" points="608.632 510.235 563.073 510.235 563.073 565.219 608.632 510.235"/><polygon fill="#3f3d56" points="675.738 510.235 563.073 668.344 563.073 695.235 843.073 695.235 843.073 510.235 675.738 510.235"/><circle cx="795.073" cy="405.235" r="79" fill="#2f2e41"/><rect width="24" height="43" x="970.037" y="568.903" fill="#2f2e41" transform="translate(1801.11014 1079.13775) rotate(-180)"/><rect width="24" height="43" x="922.037" y="568.903" fill="#2f2e41" transform="translate(1705.11014 1079.13775) rotate(-180)"/><ellipse cx="811.073" cy="510.735" fill="#2f2e41" rx="20" ry="7.5"/><ellipse cx="763.073" cy="509.735" fill="#2f2e41" rx="20" ry="7.5"/><circle cx="793.073" cy="385.235" r="27" fill="#fff"/><circle cx="793.073" cy="385.235" r="9" fill="#3f3d56"/><path fill="#6c63ff" d="M1034.66938,433.43522c6.37889-28.56758-14.01185-57.43391-45.544-64.47476s-62.2651,10.41-68.644,38.97759S935,447.04185,966.53215,454.0827,1028.29049,462.0028,1034.66938,433.43522Z" transform="translate(-162.96329 -101.66814)"/><line x1="178.073" x2="178.073" y1="394.235" y2="695.235" fill="none" stroke="#3f3d56" stroke-miterlimit="10" stroke-width="2"/><rect width="350" height="232" x="3.073" y="278.235" fill="#6c63ff"/><rect width="270" height="8" x="43.073" y="336.235" fill="#f1f1f1"/><rect width="270" height="8" x="43.073" y="363.235" fill="#f1f1f1"/><rect width="270" height="8" x="43.073" y="390.235" fill="#f1f1f1"/><rect width="70" height="8" x="243.073" y="444.235" fill="#f1f1f1"/><ellipse cx="178.073" cy="278.235" fill="#3f3d56" rx="30" ry="16"/></svg>